# xmcd CD database file
#
# Track frame offsets:
#	150
#	1773
#	65253
#	137793
#	198014
#	198357
#	218350
#	239859
#	259658
#	280356
#	298160
#	317200
#
# Disc length: 4237 seconds
#
# Revision: 0
# Processed by: cddbd v1.5.1PL0 Copyright (c) Steve Scherf et al.
# Submitted via: CDex 1.51
#
DISCID=b4108b0c
DTITLE=Various Artist - Zouk - La Grande Discotheque du Zouk Love
DYEAR=1999
DGENRE=Zouk Love
TTITLE0=Intro P.P.
TTITLE1=Mix Part I
TTITLE2=Mix Part II
TTITLE3=Mix Part III
TTITLE4=Intro D.J.
TTITLE5=T'en Vas Pas - Phil Control
TTITLE6=Mwen Inmew - A Larade
TTITLE7=Jessy - Jelissa
TTITLE8=Froidesse - Laurent Laka
TTITLE9=Dekasse - Klod Faustin
TTITLE10=Voyou - Josseline Varane
TTITLE11=Ocean Intro
EXTD=YEAR: 1999
EXTT0=
EXTT1=
EXTT2=
EXTT3=
EXTT4=
EXTT5=
EXTT6=
EXTT7=
EXTT8=
EXTT9=
EXTT10=
EXTT11=
PLAYORDER=
